# xmcd
#
# Track frame offsets:
#	150
#	12635
#	30522
#	48222
#	69165
#	91665
#	116262
#	135147
#	154977
#	173332
#	192070
#	209319
#	230050
#	252520
#	268919
#	284725
#	303683
#	334371
#
# Disc length: 4764 seconds
#
# Revision: 0
# Processed by: cddbd v1.5.2PL0 Copyright (c) Steve Scherf et al.
# Submitted via: EasyCDDAExtractor 11.5.0.1
#
DISCID=fa129a12
DTITLE=Sagopa Kajmer - Kötü İnsanları Tanıma Senesi
DYEAR=1900
DGENRE=
TTITLE0=İntro
TTITLE1=Ben Hüsrana Komşuyum
TTITLE2=Bir Kulaç Daha Atsam Karadayım
TTITLE3=Düşersem Yanarım
TTITLE4=İki Tanık
TTITLE5=Gölge Haramileri
TTITLE6=Bir Çıkar Yolum Yok
TTITLE7=Sahibinin Sesi
TTITLE8=Beyâban
TTITLE9=Sonumuz Yakın Mesafe
TTITLE10=Gördüklerime İnanmam Gerek
TTITLE11=Vesselam
TTITLE12=Tek Başınalığın Yolcusu
TTITLE13=Yakın ve Uzak
TTITLE14=Düşenin Dostu Olmaz
TTITLE15=Dessas
TTITLE16=Kötü İnsanları Tanıma Senesi
TTITLE17=sagopa kajmer live
EXTD=
EXTT0=
EXTT1=
EXTT2=
EXTT3=
EXTT4=
EXTT5=
EXTT6=
EXTT7=
EXTT8=
EXTT9=
EXTT10=
EXTT11=
EXTT12=
EXTT13=
EXTT14=
EXTT15=
EXTT16=
EXTT17=
PLAYORDER=
